<svg version="1.0" xmlns="http://www.w3.org/2000/svg" width="592" height="592" viewBox="0 0 444 444"><path d="M319 42.9c-9.3 2.4-21.7 7.7-33.2 14.1-4.8 2.8-9.5 5-10.3 5-.8 0-4.7-.9-8.7-2-12.5-3.5-27.4-5.2-43.8-5.2-18.1 0-32.2 1.9-48.4 6.5l-11.2 3.2-6-3.7c-8-5-22.4-12.1-30.4-14.9-4.8-1.7-8.9-2.3-15.5-2.3-7.8-.1-9.6.2-13.5 2.4-12.9 7.3-18 25.3-18 64v18.1l-6.2 10.2C43 189.2 39.9 251.2 65.5 304.7 103.2 383.4 193 422.3 276 395.8c59.5-19.1 103.6-67.4 117.6-128.8 9.5-41.7 2.3-88.5-19.3-125.2l-5-8.4-.6-21c-1.3-41.3-7.2-59.9-21.7-67.8-6.9-3.8-17.4-4.4-28-1.7zm25.1 17.7c6.3 6.1 7.8 19.6 5.9 55.2l-1.2 24.1 4 6.4c24.9 39.4 30.9 87.9 16.2 131.8-17.2 51.8-60.1 89.9-114.8 102.2-8.3 1.8-12.8 2.1-31.2 2.1s-22.9-.3-31.2-2.1C130.1 366.5 84.2 320 71.9 259.1c-1.1-5.3-2.2-16.1-2.5-24.1-1.4-33.1 7.4-64.1 26-92l5.6-8.3-1.1-19.1c-2-34.6-.3-48.7 6.5-53.1 7.1-4.7 22.4 1 44.6 16.6l11.4 8.1 9.1-3.1c33.9-11.5 69.6-11.7 102.4-.3l5.4 1.8 13.6-9.4c27.3-18.9 42.9-23.6 51.2-15.6z"/><path d="M112.1 74.6c-3 3.8-3.5 10.3-2.2 27.4 1.8 22.5.9 21.3 10.1 12.7 7-6.6 20.1-16.1 29-21l3.2-1.7-9.8-7.2c-17.9-13-26-15.7-30.3-10.2zM315.5 79.1c-3.3 1.6-9.3 5.4-13.3 8.3l-7.3 5.3 5.8 3.3c8.8 4.9 18 11.8 25.6 18.9 3.7 3.5 7 6.1 7.3 5.8.3-.3 1.1-6.9 1.7-14.7 2.2-27.9-3.2-35.3-19.8-26.9zM263.3 151.4c-13.9 3.2-27 12.3-31.8 22.1-2.8 5.5-2.8 17.5 0 23 2.9 6 11.2 13.7 18.5 17.3 22.8 11.2 55.7 6 69.1-10.9 14.9-18.8 4.1-41.6-23.9-50.5-6.8-2.2-24.3-2.7-31.9-1zm23 8.4c1.3.6.5 1.1-3.1 2.4-6.2 2.2-13.9 9-16.3 14.3-2.5 5.4-2.4 12.8.2 18.1 2.6 5.4 7.6 9.9 15.2 13.4l5.9 2.8-5.7.7c-11.6 1.5-26.2-3-33.9-10.3-18.2-17.4-1.1-42 29.4-42 3.6-.1 7.3.3 8.3.6zm19.6 7.8c3.8 3.2 4.9 8 2.7 12.2-2 3.8-4.4 5.2-9.1 5.2-5 0-7.4-1.5-9.1-5.7-2-4.6-1-8.6 2.8-11.8 3.9-3.3 8.7-3.3 12.7.1zm5.3 24.1c3.8 3.4 1.2 9.3-4.1 9.3-3.4 0-5.1-1.7-5.1-5.1 0-5.2 5.4-7.7 9.2-4.2zM123.3 160.5c-17.9 4.8-29.3 18.2-28 32.8 1 11.2 10 22 22.4 26.7 8.6 3.4 22.1 3.9 31 1.2 16.6-5.1 27.5-18.9 25.8-32.6-2.6-20.4-28-34.3-51.2-28.1zm16 7.2 3.8.6-4.3 2.4c-11 6.2-15.9 15.3-13.7 25.5 1.3 5.8 7.3 12.9 13.8 16.2l4.6 2.4-4.7.7c-16 2.4-33.8-10.2-33.8-24 0-10.7 10.7-21.3 23.7-23.5 6.6-1.1 6.3-1.1 10.6-.3zm16 8.5c3.2 3.8 1.7 10.1-2.8 11.8-6.1 2.3-12-3.9-9.6-9.9 2.2-5.2 8.7-6.3 12.4-1.9zm7.5 21.4c3 2.1 2.9 5.9-.3 8-2.3 1.5-2.7 1.5-5 0-2.9-1.9-3.3-5.6-.9-8 1.9-2 3.4-2 6.2 0zM168.5 232.1c-11.7 1.5-20.7 10-18.9 17.7 2 8.3 9 16.9 16.4 20.1l5 2.2v5.2c0 15.3-17.2 21.6-28.6 10.5-4.6-4.4-6.3-3.8-4.1 1.4 4.5 10.8 23.5 18.5 48.3 19.5 21 .9 37.8-2.3 53.9-10.2 9.3-4.6 18.6-11.7 17.2-13.1-.4-.4-3.8.8-7.5 2.8-18.9 10.2-40.1 12.9-53.7 6.9-8.2-3.6-15.8-12.6-17.8-21.2-.6-2.2-.2-2.7 2.8-3.8 8.5-3 18.4-17.4 17.1-24.7-1.8-9.1-15.6-15.3-30.1-13.3z"/><path d="M138 260.5c-2 2.5-.8 5 2.5 5 2.1 0 3.1-.5 3.3-1.8.4-2.1-1.4-4.7-3.3-4.7-.7 0-1.8.7-2.5 1.5zM206.9 267.6c-1.7 2.1 0 4.9 3.2 4.9 1.8 0 2.5-.6 2.7-2.4.6-3.8-3.4-5.5-5.9-2.5zM227.9 268.6c-1.7 2.1 0 4.9 3.2 4.9 1.8 0 2.5-.6 2.7-2.4.6-3.8-3.4-5.5-5.9-2.5zM148 270.5c-2 2.5-.8 5 2.5 5 2.1 0 3.1-.5 3.3-1.8.4-2.1-1.4-4.7-3.3-4.7-.7 0-1.8.7-2.5 1.5zM195.2 271.2c-3 3 .3 7.7 4 5.7 3-1.6 1.6-6.9-1.7-6.9-.6 0-1.6.5-2.3 1.2zM132.3 272.6c-.8 2.2 1 4.9 3.2 4.9 1 0 2.2-.7 2.8-1.6 1.5-2.4.1-4.9-2.8-4.9-1.5 0-2.8.7-3.2 1.6zM208.4 279.4c-1.1 2.8.1 5.1 2.5 5.1 3.2 0 4.9-2.8 3.2-4.9-1.7-2-5-2.1-5.7-.2zM236.3 279.6c-.8 2.2 1 4.9 3.2 4.9 1 0 2.2-.7 2.8-1.6 1.5-2.4.1-4.9-2.8-4.9-1.5 0-2.8.7-3.2 1.6zM222.9 280.6c-.9 1.1-1 2-.2 3.2 1.5 2.4 4.4 2.7 5.9.7 2.8-3.8-2.7-7.5-5.7-3.9z"/></svg>